<svg xmlns="http://www.w3.org/2000/svg" viewBox="0 0 383.16 384.02"><defs><style>.cls-1{fill:#ffd400;}.cls-2{fill:#fff;}</style></defs><g id="Слой_2" data-name="Слой 2"><g id="Слой_1-2" data-name="Слой 1"><path class="cls-1" d="M181.05,0h21c6.78.85,13.59,1.47,20.31,2.58,33.38,5.54,63.42,18.76,89.57,40.28,38.36,31.57,61.54,72,69,121.25.88,5.78,1.49,11.59,2.23,17.39v21c-.84,6.66-1.44,13.37-2.55,20-7.27,43.6-27,80.6-59.4,110.57a186.46,186.46,0,0,1-101.86,48.72c-5.76.84-11.56,1.49-17.34,2.23H181c-7.38-1-14.81-1.74-22.14-3-47-8.29-85.93-30.85-115.76-68C4.78,265.25-7.71,210.74,4.53,150.75,20.1,74.45,86.31,12.75,163.32,2.26,169.22,1.45,175.16.75,181.05,0ZM79.85,114.81l-.63,1a36.32,36.32,0,0,1,3.24,2.55c29.7,29.7,59.56,59.12,88.7,89.27,7.63,7.89,15.14,12.49,26.16,10.73,2.45-.39,4.38-.81,6.19-2.64q48.74-49,97.58-97.85c.83-.84,1.59-1.76,2.76-3.06Zm152,89a16.41,16.41,0,0,1-2,3.25c-6.73,6.86-13.6,13.59-20.31,20.47a10.19,10.19,0,0,1-8,3.31c-6.73-.14-13.49.25-20.2-.19a13.05,13.05,0,0,1-7.51-3.16c-7.12-6.63-13.85-13.69-20.74-20.57-.93-.93-1.93-1.8-2.34-2.18L86.47,269.06H296.93ZM70,124.55v140.6l70.15-70.29Zm243.15.75-69.43,69.56c23,23.06,46.45,46.54,69.43,69.58Z"/><path class="cls-2" d="M79.85,114.81h224c-1.17,1.3-1.93,2.22-2.76,3.06q-48.79,48.91-97.58,97.85c-1.81,1.83-3.74,2.25-6.19,2.64-11,1.76-18.53-2.84-26.16-10.73-29.14-30.15-59-59.57-88.7-89.24a36.32,36.32,0,0,0-3.24-2.55Z"/><path class="cls-2" d="M231.84,203.8l65.09,65.26H86.47l64.26-64.33c.41.38,1.41,1.25,2.34,2.18,6.89,6.88,13.62,13.94,20.74,20.57a13.05,13.05,0,0,0,7.51,3.16c6.71.44,13.47.05,20.2.19a10.19,10.19,0,0,0,8-3.31c6.71-6.88,13.58-13.61,20.31-20.47A16.46,16.46,0,0,0,231.84,203.8Z"/><path class="cls-2" d="M70,124.55l70.15,70.31L70,265.15Z"/><path class="cls-2" d="M313.16,125.3V264.44c-23-23-46.41-46.52-69.43-69.58Z"/></g></g></svg>