<svg xmlns="http://www.w3.org/2000/svg" viewBox="0 0 382.87 384"><defs><style>.cls-1{fill:#3a559f;}.cls-2{fill:#fff;}</style></defs><g id="Слой_2" data-name="Слой 2"><g id="Слой_1-2" data-name="Слой 1"><path class="cls-1" d="M198,384H184.51c-1.82-.29-3.64-.63-5.48-.87-8.75-1.13-17.63-1.65-26.24-3.45-42.79-9-78.81-29.95-107-63.46-38.74-46.1-52.7-99.4-42.7-158.65,6-35.4,21.52-66.61,45.6-93.23,32.58-36,73-57.14,121.38-62.71,4.8-.56,9.61-1.09,14.41-1.63H198a11.72,11.72,0,0,0,2.12.64c8.41.91,16.93,1.19,25.21,2.76,47.29,9,86.17,32.3,116.12,70.09a186.09,186.09,0,0,1,39.84,97.69c.5,4.7,1.06,9.38,1.59,14.07v13.5c-.29,1.83-.63,3.66-.87,5.49-1.13,8.77-1.64,17.66-3.44,26.29-9,43.15-30.31,79.16-63.83,107.69a185.88,185.88,0,0,1-102.34,44.15C207.58,382.9,202.79,383.46,198,384Zm-35.4-175.3v5q0,46.11,0,92.24c0,4.83,1.46,6.29,6.2,6.3q15.53,0,31.06,0c6.38,0,7.35-1,7.37-7.38.1-30.5.26-61,.23-91.49,0-3.79,1.06-4.89,4.87-4.77,9.47.28,19,.12,28.44.08,4.36,0,7.07-1.91,7.55-5.68,1.38-10.89,2.72-21.78,3.75-32.7.57-6-2-8.49-8-8.5-10.86,0-21.71,0-32.56,0-1.33,0-2.65-.11-4.09-.17,0-10.84-.65-21.36.17-31.77.93-11.79,6.59-16.26,18.49-16.43,5.74-.08,11.48,0,17.22-.07,4.47-.09,7.41-2.14,7.54-6.19.3-9.85.23-19.73,0-29.59A5.58,5.58,0,0,0,245,71.84c-12.58.07-25.27-.57-37.71.85-24.63,2.79-41.9,21.26-43.83,46.14-.93,11.93-.62,24-.85,35.94,0,2.21,0,4.42,0,7-8.3,0-16.13,0-24,0-6.14,0-8.37,2.22-8.37,8.31,0,10,.06,20,.1,30,0,6.38,2.17,8.57,8.48,8.59C146.57,208.71,154.28,208.7,162.59,208.7Z"/><path class="cls-2" d="M162.59,208.7c-8.31,0-16,0-23.74,0-6.31,0-8.46-2.21-8.48-8.59,0-10-.1-20-.1-30,0-6.09,2.23-8.29,8.37-8.31,7.82,0,15.65,0,24,0,0-2.61,0-4.82,0-7,.23-12-.08-24,.85-35.94,1.93-24.88,19.2-43.35,43.83-46.14,12.44-1.42,25.13-.78,37.71-.85a5.58,5.58,0,0,1,5.82,5.73c.26,9.86.33,19.74,0,29.59-.13,4-3.07,6.1-7.54,6.19-5.74.11-11.48,0-17.22.07-11.9.17-17.56,4.64-18.49,16.43-.82,10.41-.17,20.93-.17,31.77,1.44.06,2.76.17,4.09.17,10.85,0,21.7,0,32.56,0,6,0,8.57,2.47,8,8.5-1,10.92-2.37,21.81-3.75,32.7-.48,3.77-3.19,5.66-7.55,5.68-9.48,0-19,.2-28.44-.08-3.81-.12-4.88,1-4.87,4.77,0,30.5-.13,61-.23,91.49,0,6.4-1,7.38-7.37,7.38q-15.53,0-31.06,0c-4.74,0-6.19-1.47-6.2-6.3q0-46.12,0-92.24Z"/></g></g></svg>