<svg xmlns="http://www.w3.org/2000/svg" xmlns:xlink="http://www.w3.org/1999/xlink" viewBox="0 0 512 512"><defs><style>.cls-1,.cls-2{fill-rule:evenodd;}.cls-1{fill:url(#Безымянный_градиент);}.cls-2{fill:#fff;}</style><linearGradient id="Безымянный_градиент" x1="52.84" y1="411.77" x2="459.2" y2="104.21" gradientTransform="matrix(1, 0, 0, -1, 0, 514)" gradientUnits="userSpaceOnUse"><stop offset="0" stop-color="#904a97"/><stop offset="1" stop-color="#f7b648"/></linearGradient></defs><g id="Слой_2" data-name="Слой 2"><g id="Слой_1-2" data-name="Слой 1"><path class="cls-1" d="M256,0C397.39,0,512,114.61,512,256S397.39,512,256,512,0,397.39,0,256,114.61,0,256,0Z"/><path class="cls-2" d="M256,305.42A49.42,49.42,0,1,1,305.43,256,49.42,49.42,0,0,1,256,305.42Zm-61.14-196.8c-55,2.51-83.85,33.43-86.24,86.25-1.84,40-1.84,82.28,0,122.27C111,370,139.9,400.88,194.87,403.38c40,1.83,82.28,1.83,122.27,0,52.82-2.41,83.73-31.25,86.25-86.24,1.82-40,1.81-82.27,0-122.27-2.46-53.84-32.41-83.8-86.25-86.25-40-1.83-82.28-1.83-122.27,0Zm121.05,26.69c39.94,1.82,59,20.83,60.78,60.77,1.8,39.16,1.79,80.68,0,119.84-1.86,41.09-21.87,59-60.78,60.78-39.17,1.78-80.66,1.78-119.83,0-38.91-1.78-58.91-19.69-60.78-60.78-1.79-39.16-1.79-80.68,0-119.84,1.77-38.91,19.69-58.89,60.78-60.77C235.26,133.52,276.75,133.51,315.92,135.31Zm37,41.54a17.8,17.8,0,1,1-17.79-17.79A17.8,17.8,0,0,1,353,176.85Zm-96.94,3A76.14,76.14,0,1,0,332.15,256,76.15,76.15,0,0,0,256,179.86Z"/></g></g></svg>