<svg xmlns="http://www.w3.org/2000/svg" viewBox="0 0 374.39 375.06"><defs><style>.cls-1{fill:#039be5;}.cls-2{fill:#fff;}</style></defs><g id="Слой_2" data-name="Слой 2"><g id="Слой_1-2" data-name="Слой 1"><path class="cls-1" d="M187.13,375.06C83.71,375-.13,290.85,0,187.17.13,83.79,84.17-.13,187.45,0s187,84.2,186.94,187.69S290.4,375.1,187.13,375.06ZM181.55,247c2,1.35,3.81,2.6,5.63,3.89L253.36,298c4.14,2.94,5.43,2.41,6.48-2.54q4.26-20.15,8.55-40.29,18.53-87,37-174c.36-1.67-.18-3.53-.31-5.3-1.76.19-3.65,0-5.27.62q-107,38.86-213.87,77.87Q59.25,164.09,32.63,174c-1.26.48-2.12,2-3.16,3.09,1.06.92,2.08,1.88,3.2,2.73.36.28.95.24,1.43.38Q69.29,191,104.49,201.8a6.33,6.33,0,0,1,4.77,4.5c4.65,14,9.49,27.87,14.26,41.79,4,11.69,8,23.38,12,35,1.38,4,3.09,4.38,6.21,1.57,1.58-1.42,3.1-2.9,4.64-4.36Z"/><path class="cls-2" d="M181.55,247l-35.14,33.38c-1.54,1.46-3.06,2.94-4.64,4.36-3.12,2.81-4.83,2.41-6.21-1.57-4.05-11.67-8-23.36-12-35-4.77-13.92-9.61-27.83-14.26-41.79a6.33,6.33,0,0,0-4.77-4.5Q69.27,191.09,34.1,180.21c-.48-.14-1.07-.1-1.43-.38-1.12-.85-2.14-1.81-3.2-2.73,1-1.06,1.9-2.61,3.16-3.09q26.59-9.94,53.3-19.64,106.92-39,213.87-77.87c1.62-.59,3.51-.43,5.27-.62.13,1.77.67,3.63.31,5.3q-18.42,87-37,174-4.29,20.14-8.55,40.29c-1,4.95-2.34,5.48-6.48,2.54l-66.18-47.12C185.36,249.57,183.51,248.32,181.55,247Zm77-128.18c-3.52-4.14-5.7-3.17-8.14-1.65q-62.6,39.22-125.28,78.32c-2.13,1.32-2.43,2.45-1.71,4.77,5.42,17.25,10.68,34.55,16,51.83a22.68,22.68,0,0,0,1,2.32c1.52-9.14,2.68-18.17,3.27-27.24a17.87,17.87,0,0,1,6.52-13.35c35-30.91,69.7-62.12,104.54-93.19C255.77,119.71,257.27,119.38,258.54,118.79Z"/><path class="cls-1" d="M258.54,118.79c-1.27.59-2.77.92-3.77,1.81-34.84,31.07-69.56,62.28-104.54,93.19a17.87,17.87,0,0,0-6.52,13.35c-.59,9.07-1.75,18.1-3.27,27.24a22.68,22.68,0,0,1-1-2.32c-5.33-17.28-10.59-34.58-16-51.83-.72-2.32-.42-3.45,1.71-4.77q62.7-39.08,125.28-78.32C252.84,115.62,255,114.65,258.54,118.79Z"/></g></g></svg>