<svg xmlns="http://www.w3.org/2000/svg" viewBox="0 0 382.85 384"><defs><style>.cls-1{fill:#6f3faa;}.cls-2{fill:#fff;}</style></defs><g id="Слой_2" data-name="Слой 2"><g id="Слой_1-2" data-name="Слой 1"><path class="cls-1" d="M382.85,186v12c-.3,2.08-.63,4.16-.9,6.24-1.13,8.76-1.65,17.65-3.44,26.28-8.93,42.88-30.05,78.73-63.27,107.19C285.47,363.23,251,378.21,212,382.38c-4.68.5-9.34,1.08-14,1.62H184.48c-1.32-.28-2.63-.65-4-.82C172,382.13,163.39,381.63,155,380c-45.3-8.77-82.61-31.3-111.86-66.92-24-29.27-37.95-62.94-42-100.73a189.14,189.14,0,0,1,2.93-59.53Q17.51,89,66.89,46.55A185.91,185.91,0,0,1,170.46,1.62c4.68-.51,9.35-1.08,14-1.62H198c1.69.29,3.38.62,5.09.88,11.29,1.68,22.78,2.51,33.84,5.18,40.54,9.78,74.21,31.11,101,63.07a186.61,186.61,0,0,1,43.37,102.06C381.75,176.13,382.31,181.06,382.85,186ZM191.3,70.89c-14.74,1.33-29.49,2.62-44.23,4-15.69,1.49-29.68,7.1-41.68,17.47C94,102.25,83.9,113.53,80.68,128.55a291.34,291.34,0,0,0-5.44,43.31A173.48,173.48,0,0,0,76.73,204C78,213.8,79.34,224,83.15,233c8.58,20.29,24,34.33,44.52,42.49,2.63,1.05,3.63,2.24,3.53,5.1-.23,6.36,0,12.75-.1,19.12-.11,5.36,1.54,9.65,6.76,11.76s9.13.09,12.7-3.68c7.21-7.62,14.45-15.2,21.86-22.62a7.75,7.75,0,0,1,5.07-2.19A371.52,371.52,0,0,0,234.55,280c14.06-1.9,27.25-5.64,38.61-14.56C286.49,255,298,242.79,301.77,225.9a253,253,0,0,0,5.39-43.31c.54-12.39-1-24.91-2.07-37.32-1.55-17.4-7.65-32.9-20.18-45.54-11-11.1-23.2-20.11-38.94-23A368.48,368.48,0,0,0,191.3,70.89Z"/><path class="cls-2" d="M191.3,70.89A368.48,368.48,0,0,1,246,76.71c15.74,2.91,28,11.92,38.94,23,12.53,12.64,18.63,28.14,20.18,45.54,1.12,12.41,2.61,24.93,2.07,37.32a253,253,0,0,1-5.39,43.31C298,242.79,286.49,255,273.16,265.48c-11.36,8.92-24.55,12.66-38.61,14.56A371.52,371.52,0,0,1,177.49,283a7.75,7.75,0,0,0-5.07,2.19c-7.41,7.42-14.65,15-21.86,22.62-3.57,3.77-7.61,5.74-12.7,3.68s-6.87-6.4-6.76-11.76c.12-6.37-.13-12.76.1-19.12.1-2.86-.9-4.05-3.53-5.1-20.5-8.16-35.94-22.2-44.52-42.49-3.81-9-5.19-19.21-6.42-29a173.48,173.48,0,0,1-1.49-32.11,291.34,291.34,0,0,1,5.44-43.31c3.22-15,13.27-26.3,24.71-36.18,12-10.37,26-16,41.68-17.47C161.81,73.51,176.56,72.22,191.3,70.89ZM140.5,279.4c0,6.13-.06,12.25.05,18.37a18.48,18.48,0,0,0,1,4.09c1.33-.72,2.94-1.19,4-2.22,11.64-11.84,23.15-23.81,34.83-35.62a8.69,8.69,0,0,1,5.05-2.42c15.38-1.15,30.78-2.07,46.18-3.08,18.2-1.19,32-10.19,42.53-24.57a41.38,41.38,0,0,0,7-13.9,188,188,0,0,0,4.08-25.82c1.73-17,.46-33.87-2.1-50.73-3.18-20.87-20.9-41.78-40.35-45.34a345.34,345.34,0,0,0-42.23-4.76A239.18,239.18,0,0,0,145.09,97c-21.52,3.79-36,16.66-43.43,36.76-3.11,8.47-4,18.06-4.32,27.21a341.72,341.72,0,0,0,.75,40c.65,8.35,1.94,17.16,5.35,24.66,6.7,14.74,18.41,25,33.84,30.44,2.53.9,3.28,2.15,3.25,4.59C140.44,266.91,140.5,273.16,140.5,279.4Z"/><path class="cls-1" d="M140.5,279.4c0-6.24-.06-12.49,0-18.74,0-2.44-.72-3.69-3.25-4.59-15.43-5.45-27.14-15.7-33.84-30.44-3.41-7.5-4.7-16.31-5.35-24.66a341.72,341.72,0,0,1-.75-40c.36-9.15,1.21-18.74,4.32-27.21,7.38-20.1,21.91-33,43.43-36.76a239.18,239.18,0,0,1,55.44-3.63,345.34,345.34,0,0,1,42.23,4.76c19.45,3.56,37.17,24.47,40.35,45.34,2.56,16.86,3.83,33.75,2.1,50.73a188,188,0,0,1-4.08,25.82,41.38,41.38,0,0,1-7,13.9c-10.5,14.38-24.33,23.38-42.53,24.57-15.4,1-30.8,1.93-46.18,3.08a8.69,8.69,0,0,0-5.05,2.42c-11.68,11.81-23.19,23.78-34.83,35.62-1,1-2.63,1.5-4,2.22a18.48,18.48,0,0,1-1-4.09C140.44,291.65,140.5,285.53,140.5,279.4ZM200.12,207a24.47,24.47,0,0,1-3-.33,19.12,19.12,0,0,1-2.8-1c-13.25-5.38-22.56-14.8-28.5-27.74-4.46-9.73-4.39-10.24,3.62-17,4-3.36,5.53-8.12,2.81-12.35-4.84-7.54-10.22-14.74-15.62-21.89-2.09-2.75-5.41-3.28-8.52-1.94-7.07,3-12.76,7.75-16.23,14.81a12,12,0,0,0-.65,9.76c15.33,42.56,43.85,72.14,86,88.69,6.83,2.69,12.49,1.77,17.49-2.89a52.85,52.85,0,0,0,8.9-10.92c3.07-5,2.25-8.44-2.47-12.06-6.22-4.78-12.7-9.24-19.12-13.77A9.49,9.49,0,0,0,219,197c-5.33-1.38-8.75,1.44-11.65,5.42C205.54,204.91,203.65,207.29,200.12,207Zm-7.82-89.51h-2.05c-2.5,0-4.52,1.27-4.16,3.64.21,1.36,2.38,2.78,4,3.46s3.65.66,5.51.78c20.89,1.41,39.09,16.41,44,36.73,1.29,5.29,1.64,10.82,2.22,16.26.28,2.7.76,5.33,4,5.23s3.55-2.67,3.28-5.26c-.48-4.71-.79-9.45-1.55-14.11C243.35,138.69,219.08,117.87,192.3,117.51Zm41.84,53.77.18,0c-.33-2.34-.59-4.69-1-7-3.19-17.72-19.69-31.74-37.46-31.62a6.18,6.18,0,0,0-4.51,2.25c-1.39,2.11.59,4.45,3.83,4.84,7.79.94,15.11,3,21.13,8.39,7.43,6.68,10.49,15.22,10.61,25,0,2.56,1,4.64,3.79,4.54,2.53-.08,3.48-2.06,3.43-4.49C234.12,172.53,234.14,171.9,234.14,171.28Zm-14.9-3.77c-.52-11.29-8.15-19-19.12-19.34-2.37-.08-4.35.34-4.63,3.06-.3,2.93,1.75,3.84,4.17,4.19,8.35,1.22,11,4,12.37,12.68.4,2.52,1.32,4.8,4.36,4.52S219.36,169.82,219.24,167.51Z"/><path class="cls-2" d="M200.12,207c3.53.27,5.42-2.11,7.21-4.56,2.9-4,6.32-6.8,11.65-5.42a9.49,9.49,0,0,1,3.05,1.34c6.42,4.53,12.9,9,19.12,13.77,4.72,3.62,5.54,7.06,2.47,12.06a52.85,52.85,0,0,1-8.9,10.92c-5,4.66-10.66,5.58-17.49,2.89-42.13-16.55-70.65-46.13-86-88.69a12,12,0,0,1,.65-9.76c3.47-7.06,9.16-11.78,16.23-14.81,3.11-1.34,6.43-.81,8.52,1.94,5.4,7.15,10.78,14.35,15.62,21.89,2.72,4.23,1.18,9-2.81,12.35-8,6.76-8.08,7.27-3.62,17,5.94,12.94,15.25,22.36,28.5,27.74a19.12,19.12,0,0,0,2.8,1A24.47,24.47,0,0,0,200.12,207Z"/><path class="cls-2" d="M192.3,117.51c26.78.36,51,21.18,55.24,46.73.76,4.66,1.07,9.4,1.55,14.11.27,2.59-.2,5.16-3.28,5.26s-3.7-2.53-4-5.23c-.58-5.44-.93-11-2.22-16.26-5-20.32-23.15-35.32-44-36.73-1.86-.12-3.86-.07-5.51-.78s-3.76-2.1-4-3.46c-.36-2.37,1.66-3.66,4.16-3.64Z"/><path class="cls-2" d="M234.14,171.28c0,.62,0,1.25,0,1.87.05,2.43-.9,4.41-3.43,4.49-2.78.1-3.75-2-3.79-4.54-.12-9.78-3.18-18.32-10.61-25-6-5.41-13.34-7.45-21.13-8.39-3.24-.39-5.22-2.73-3.83-4.84a6.18,6.18,0,0,1,4.51-2.25c17.77-.12,34.27,13.9,37.46,31.62.41,2.32.67,4.67,1,7Z"/><path class="cls-2" d="M219.24,167.51c.12,2.31.26,4.82-2.85,5.11s-4-2-4.36-4.52c-1.37-8.73-4-11.46-12.37-12.68-2.42-.35-4.47-1.26-4.17-4.19.28-2.72,2.26-3.14,4.63-3.06C211.09,148.53,218.72,156.22,219.24,167.51Z"/></g></g></svg>