<svg xmlns="http://www.w3.org/2000/svg" viewBox="0 0 383.16 384"><defs><style>.cls-1{fill:red;}.cls-2{fill:#fff;}</style></defs><g id="Слой_2" data-name="Слой 2"><g id="Слой_1-2" data-name="Слой 1"><path class="cls-1" d="M181.06,0h21a23,23,0,0,0,3.24.67C238.25,3,268.75,13,296.19,31.42,343.6,63.25,372,107.5,380.93,164.11c.91,5.77,1.5,11.59,2.23,17.39v21c-.83,6.66-1.44,13.37-2.54,20-7.28,43.59-27,80.59-59.41,110.57a186.57,186.57,0,0,1-101.85,48.72c-5.77.84-11.56,1.48-17.34,2.22h-21c-7.39-1-14.82-1.73-22.15-3-47-8.29-85.93-30.85-115.76-68C4.78,265.25-7.71,210.74,4.53,150.75c15.56-76.3,81.75-138,158.78-148.5C169.22,1.45,175.14.75,181.06,0Zm10.38,264.23c21.32,0,42.66.38,64-.11a37.38,37.38,0,0,0,37-37.16q.65-35,0-70.1a37.4,37.4,0,0,0-36.81-37c-18-.48-35.92-.19-53.88-.19-24.82,0-49.64-.29-74.45.22A37.4,37.4,0,0,0,90.62,157q-.6,34.86,0,69.73a37.5,37.5,0,0,0,36.86,37.35C148.77,264.6,170.11,264.22,191.44,264.23Z"/><path class="cls-2" d="M191.44,264.22c-21.33,0-42.67.38-64-.11A37.5,37.5,0,0,1,90.6,226.76q-.52-34.86,0-69.73a37.4,37.4,0,0,1,36.67-37.13c24.81-.51,49.63-.21,74.45-.22,18,0,35.93-.29,53.88.19a37.4,37.4,0,0,1,36.81,37q.7,35,0,70.1a37.38,37.38,0,0,1-37,37.16C234.1,264.61,212.76,264.23,191.44,264.22Zm-26.05-41.63L217.88,192l-52.49-30.55Z"/><path class="cls-1" d="M165.39,222.59V161.43L217.88,192Z"/></g></g></svg>