<svg xmlns="http://www.w3.org/2000/svg" xmlns:xlink="http://www.w3.org/1999/xlink" viewBox="0 0 400.14 191.04"><defs><style>.cls-1{fill:url(#Безымянный_градиент);}.cls-2{fill:#fff;}.cls-3{fill:none;}</style><linearGradient id="Безымянный_градиент" y1="111.52" x2="400.14" y2="111.52" gradientTransform="matrix(1, 0, 0, -1, 0, 207.04)" gradientUnits="userSpaceOnUse"><stop offset="0" stop-color="#fbb03b"/><stop offset="1" stop-color="#c1272d"/></linearGradient></defs><g id="Слой_2" data-name="Слой 2"><g id="Слой_1-2" data-name="Слой 1"><g id="Слой_2-2" data-name="Слой 2"><g id="Слой_1-2-2" data-name="Слой 1-2"><path class="cls-1" d="M0,96v-.64c.45-.71.91-1.41,1.35-2.14L56.22,1.49A16.1,16.1,0,0,1,57.34,0h342.8V191H56.08c-.22-.42-.42-.85-.65-1.27Q29.69,146.1,4,102.42C2.68,100.26,1.32,98.14,0,96ZM43.94,74.8c-11.69,0-20.12,8.27-20.16,19.76,0,11.69,8.4,20.07,20.21,20.07,11.62,0,20.1-8.37,20.11-19.87S55.65,74.81,43.94,74.8Z"/><path class="cls-2" d="M184.13,96.77V74.41a89.26,89.26,0,0,1,.81-12,49.49,49.49,0,0,1,1.4-6.72,22.15,22.15,0,0,1,8.24-12A31.49,31.49,0,0,1,206,38.27a47.82,47.82,0,0,1,18.76-.91,40,40,0,0,1,13,4.19,24.84,24.84,0,0,1,13.55,18.38,83.81,83.81,0,0,1,1.05,10.6c.11,1.71.09,3.44.09,5.15v42c0,4-.31,8-.7,12a26.67,26.67,0,0,1-7.68,16.49,25.4,25.4,0,0,1-10.06,6.4,38.59,38.59,0,0,1-11.45,2.14,68,68,0,0,1-13.37-.7,35.57,35.57,0,0,1-9.52-2.8,23,23,0,0,1-8.51-6.81,29.93,29.93,0,0,1-6.38-15,79.69,79.69,0,0,1-.61-9.26c0-7.79,0-15.6,0-23.39Zm29.06-.54v26.83c0,2.3,0,4.59.13,6.88a36.43,36.43,0,0,0,.62,4.42,3,3,0,0,0,2.24,2.37,6,6,0,0,0,1.68.36c2.6,0,4.17-1,4.77-3.5.1-.45.13-.91.21-1.36a55.53,55.53,0,0,0,.49-8.93V68.61c0-1.5,0-3-.07-4.48-.11-1.94-.27-3.88-.52-5.81-.32-2.52-1.62-3.64-4.12-3.73a7.81,7.81,0,0,0-1.36.12,3.74,3.74,0,0,0-3.3,3.06,21.17,21.17,0,0,0-.67,4.75c0,2.07-.09,4.12-.1,6.19V96.22Z"/><path class="cls-2" d="M138.19,153.72H109.3a22.5,22.5,0,0,1-2.72-.22.76.76,0,0,1-.48-.45,3.1,3.1,0,0,1-.18-1q0-6.7,0-13.41a4.72,4.72,0,0,1,.72-2.61c.55-.87,1.09-1.75,1.63-2.62,8.58-13.84,17.16-27.67,25.35-41.73q2.85-4.91,5.55-9.9a67.76,67.76,0,0,0,4.79-11,34.43,34.43,0,0,0,1.32-5.68,17.9,17.9,0,0,0-.32-6.15,6.58,6.58,0,0,0-.42-1.3,6,6,0,0,0-7.66-3.41,5.23,5.23,0,0,0-3.28,3.29,12.93,12.93,0,0,0-.83,4c-.06,2.06-.15,4.12-.17,6.19,0,2.53,0,5,0,7.57a6.85,6.85,0,0,1-.19,1.69,1.18,1.18,0,0,1-.67.68,3.9,3.9,0,0,1-1.35.18H108a5.07,5.07,0,0,1-1.35-.21.87.87,0,0,1-.48-.46,2.66,2.66,0,0,1-.2-1A107.45,107.45,0,0,1,106.62,60a26.86,26.86,0,0,1,7.2-15.3,26.24,26.24,0,0,1,12.57-7.43,36,36,0,0,1,6.76-1.19A52.43,52.43,0,0,1,152.88,38a28.32,28.32,0,0,1,20.4,26.5,44.32,44.32,0,0,1-2.4,15.89,53.37,53.37,0,0,1-4.17,9.78c-2,3.59-4.07,7.18-6.23,10.7-6.07,9.85-12.58,19.43-19.1,29-.63.95-1.27,1.9-1.88,2.87a.66.66,0,0,0,.23.9.58.58,0,0,0,.29.09c1,0,2.06.06,3.09.06H166.5c1,0,2.06.06,3.09.11a1.13,1.13,0,0,1,.95.86,12.27,12.27,0,0,1,.13,1.36v15.48a4.39,4.39,0,0,1-.17,1.35,1.09,1.09,0,0,1-.68.65,29.07,29.07,0,0,1-3.09.16H138.19Z"/><path class="cls-2" d="M355.15,126c0,3.55,0,7.1,0,10.65a38.42,38.42,0,0,1-.81,8.53,12.24,12.24,0,0,1-4,6.64,19.25,19.25,0,0,1-10.24,4.46,43.26,43.26,0,0,1-11.31-.07,20.31,20.31,0,0,1-7.47-2.38,14.19,14.19,0,0,1-7.67-11.5,46.68,46.68,0,0,1-.32-5.15c0-7.78,0-15.57.05-23.36a36,36,0,0,1,.74-7.16,13.25,13.25,0,0,1,6.73-9.07,20.18,20.18,0,0,1,6.4-2.41,34.48,34.48,0,0,1,15.65.52,18.7,18.7,0,0,1,6.95,3.64,12.37,12.37,0,0,1,4.47,7.13,26.3,26.3,0,0,1,.71,4.76c0,1.72.13,3.43.15,5.15,0,3.21,0,6.41,0,9.62Zm-17.91-.62v-13c0-1.61-.1-3.2-.18-4.8a5.15,5.15,0,0,0-.22-1.35,1.89,1.89,0,0,0-1.43-1.34,5.15,5.15,0,0,0-1.36-.12,2.23,2.23,0,0,0-2.17,1.84,10.84,10.84,0,0,0-.22,1.7c-.05,1.26-.07,2.5-.07,3.76v27.11c0,1.37,0,2.74.07,4.11a6.47,6.47,0,0,0,.26,1.69,1.91,1.91,0,0,0,1.13,1.21,3.16,3.16,0,0,0,2.34.09,2,2,0,0,0,1.52-1.68c.16-1.7.32-3.42.32-5.12,0-4.7,0-9.38,0-14.07Z"/><path class="cls-2" d="M303.35,68.21V79.55a39.14,39.14,0,0,1-.69,7.17A12.4,12.4,0,0,1,298,94.49a17.49,17.49,0,0,1-7,3.5,34.17,34.17,0,0,1-5.42.86,38.73,38.73,0,0,1-10.25-.61,19.56,19.56,0,0,1-7.54-3.16,13.14,13.14,0,0,1-5.76-9,40.22,40.22,0,0,1-.67-6.83q.06-10.83,0-21.67a59.5,59.5,0,0,1,.67-7.53,18.61,18.61,0,0,1,.55-2.32,12,12,0,0,1,4.6-6.66,19.91,19.91,0,0,1,5.15-2.74,23.79,23.79,0,0,1,6-1.3,36.24,36.24,0,0,1,11.28.61,20.66,20.66,0,0,1,8,3.73,12.91,12.91,0,0,1,5,8,37.14,37.14,0,0,1,.74,7.51C303.34,60.64,303.35,64.42,303.35,68.21Zm-18.11-.27c0-5,0-10.07,0-15.1a31.68,31.68,0,0,0-.25-3.77c-.19-1.33-1-1.9-2.4-1.93a7,7,0,0,0-1,.1A1.86,1.86,0,0,0,280,48.8a48.42,48.42,0,0,0-.43,5.12q-.06,13.9,0,27.82c0,1.36.13,2.74.22,4.11a12.36,12.36,0,0,0,.19,1.36,1.71,1.71,0,0,0,1.44,1.3,10.7,10.7,0,0,0,1.7,0,1.88,1.88,0,0,0,1.73-1.44,12.42,12.42,0,0,0,.44-4.07c0-5,0-10.06,0-15.1Z"/><path class="cls-2" d="M325.05,40.07c.82,0,1.5-.11,2.18-.11,2.41,0,4.81,0,7.22.07a2.25,2.25,0,0,1,.71.26,3.16,3.16,0,0,1,0,1c-.3,1-.63,2-1,2.92Q313.54,99,292.89,153.86c-.44,1.17-.95,2.33-1.37,3.39-.33.18-.53.36-.73.36q-4.64,0-9.28,0a.76.76,0,0,1-.66-.84l0-.14c.36-1.09.72-2.18,1.12-3.25q14.21-37.62,28.41-75.23,6.4-17,12.87-34.06A18.29,18.29,0,0,1,325.05,40.07Z"/><circle class="cls-3" cx="200.07" cy="110.73" r="5.86"/></g></g></g></g></svg>