<svg xmlns="http://www.w3.org/2000/svg" viewBox="0 0 429.99 272.06"><defs><style>.cls-1{fill:#1b3771;}.cls-1,.cls-2,.cls-3,.cls-4{fill-rule:evenodd;}.cls-2{fill:#e9b040;}.cls-3{fill:#cc2131;}.cls-4{fill:#fff;}</style></defs><g id="Слой_2" data-name="Слой 2"><g id="Слой_1-2" data-name="Слой 1"><g id="Слой_2-2" data-name="Слой 2"><g id="Слой_1-2-2" data-name="Слой 1-2"><path class="cls-1" d="M0,272.06H430V0H0Z"/><path class="cls-2" d="M215.34,223a117.43,117.43,0,1,0-38.73-87.15A117.08,117.08,0,0,0,215.34,223Z"/><path class="cls-3" d="M253.38,123.35a116.26,116.26,0,0,0-2.07-12.45H179.38a124,124,0,0,1,3.45-12.45h65Q245.74,92.1,243,86H187.67q3.2-6.37,6.92-12.45h41.5a77,77,0,0,0-9-12.45H203.58a118.84,118.84,0,0,1,11.76-12.46,117.56,117.56,0,1,0-78.85,204.74A116.62,116.62,0,0,0,215.34,223a153.23,153.23,0,0,0,12-12.45H203.58a123.29,123.29,0,0,1-9-12.45h41.5A110.46,110.46,0,0,0,243,185.6H187.67a101.14,101.14,0,0,1-4.84-12.45h65a128.29,128.29,0,0,0,3.46-12.45,119.26,119.26,0,0,0,2.07-12.45,111.55,111.55,0,0,0,0-24.91Z"/><path class="cls-1" d="M175.46,169.69a32.7,32.7,0,0,1-9.69,1.62c-6,0-9.68-3.69-9.68-10.61a31.56,31.56,0,0,1,.46-4.38l.69-4.61.69-3.93,5.54-33.2h12.21L174.3,122h7.61l-1.84,12.22h-7.61L169,154c0,.69-.23,1.38-.23,1.85,0,2.53,1.38,3.69,4.38,3.69a19.58,19.58,0,0,0,3.92-.47l-1.61,10.61Zm39.42-.46a43.43,43.43,0,0,1-13.14,2.07c-13.61,0-21.67-7.38-21.67-21.67,0-16.6,9.45-29,22.36-29,10.37,0,17.06,6.91,17.06,17.75a52.27,52.27,0,0,1-1.61,12H192.52v1.38c0,5.76,3.69,8.53,11.06,8.53a31.2,31.2,0,0,0,13.37-3l-2.07,12Zm-7.61-28.82V138.1c0-3.91-2.3-6.22-6-6.22-4.15,0-6.92,3-8.07,8.53Zm-129.34,30H65.25l7.38-45.88L56.25,170.38H47.5l-.93-45.65-7.84,45.65H26.51l9.92-59.71H54.64l.7,36.89,12.21-36.89H87.84Zm30.66-21.67c-1.38,0-1.61-.23-2.53-.23-7.15,0-10.84,2.76-10.84,7.38,0,3.22,1.84,5.07,4.61,5.07,6.23,0,8.53-5.07,8.76-12.22Zm10.15,21.67H107.67l.23-5.07c-2.76,3.92-6.45,6-13.37,6-6.23,0-11.3-5.54-11.3-13.38a25.27,25.27,0,0,1,.92-6.22c2.08-7.62,9.69-12.23,21.22-12.46a46.31,46.31,0,0,1,5.53.24,9.69,9.69,0,0,0,.46-3.23c0-3.23-2.54-4.15-8.53-4.15a49.41,49.41,0,0,0-10.61,1.38l-1.61.7h-.92l1.84-10.84a47.07,47.07,0,0,1,14.76-2.54c11.06,0,16.83,4.84,16.83,14.3a40.06,40.06,0,0,1-.7,9.45l-2.53,17.29-.46,3-.46,2.53V169l-.23,1.38Zm157.47-47.95c3.45,0,6.68.92,11.3,3.23l2.07-13.15c-1.15-.46-1.38-.46-3-1.15l-5.3-1.15a20.83,20.83,0,0,0-5.76-.69c-6.23,0-9.92,0-13.84,2.53a31.08,31.08,0,0,0-7.6,6.23l-1.39-.46L239.55,127l.69-5.07h-13.6L219,170.39h12.69l4.61-26a43.07,43.07,0,0,1,2.77-4.85c2.3-3,4.37-3,6.91-3h.92c-.23,2.77-.46,6-.46,9.23,0,15.9,9,25.82,22.82,25.82a35.72,35.72,0,0,0,11.07-1.84l2.3-13.61c-4.15,2.08-7.6,3-10.83,3-7.38,0-11.76-5.3-11.76-14.53,0-12.91,6.45-22.14,16.14-22.14Zm107.67-11.76-2.76,17.06c-3-4.61-6.69-6.69-11.53-6.69-6.68,0-12.91,3.69-16.83,10.84L344.69,127l.69-5.08h-13.6l-7.84,48.42h12.91l4.15-26s3.23-3.69,4.15-4.84a7.13,7.13,0,0,1,5.54-3,45.12,45.12,0,0,0-2.31,14.3c0,12.22,6.45,20.28,15.68,20.28,4.61,0,8.3-1.61,11.76-5.53l-.7,4.85h12.22L397,110.67Zm-15.44,48.18c-4.38,0-6.46-3-6.46-9.45C362,140,365.9,133,371.89,133c4.39,0,6.69,3.46,6.69,9.69C378.58,152.17,374.43,158.85,368.44,158.85Zm-58.79-10.14c-1.38,0-1.61-.23-2.54-.23-7.15,0-10.84,2.76-10.84,7.38,0,3.22,1.85,5.07,4.62,5.07,6.22,0,8.53-5.07,8.76-12.22Zm10.14,21.67H308.73l.23-5.07c-2.77,3.92-6.46,6-13.38,6-6.22,0-11.75-5.31-11.75-13.38.23-11.53,8.76-18.68,22.59-18.68a46.31,46.31,0,0,1,5.53.24,9.49,9.49,0,0,0,.47-3.23c0-3.23-2.54-4.15-8.54-4.15a47.43,47.43,0,0,0-10.6,1.38l-1.85.7h-.69l1.85-10.84a47,47,0,0,1,14.75-2.54c11.07,0,16.83,4.84,16.83,14.3a40.44,40.44,0,0,1-.69,9.45l-2.54,17.29-.46,3-.46,2.53-.24,1.62Zm-174.54-38a82.6,82.6,0,0,1,9.69.69l1.84-11.3a113.14,113.14,0,0,0-11.52-.92c-14.07,0-18.91,7.61-18.91,16.6,0,5.76,2.77,10.15,9.45,13.14,5.3,2.54,6.23,3,6.23,5.08,0,3-2.77,4.84-7.84,4.84a41,41,0,0,1-11.3-1.85l-1.38,11.07h.23l2.3.46a10.74,10.74,0,0,0,3.23.46,49.17,49.17,0,0,0,7.38.46c14.06,0,20-5.3,20-16.14,0-6.68-3.22-10.6-9.68-13.37-5.3-2.53-6-2.76-6-5.07s2.3-4.15,6.22-4.15Z"/><path class="cls-4" d="M293,108.82,291,121.73c-4.61-2.3-7.84-3.22-11.3-3.22-9.68,0-16.36,9.22-16.36,22.36,0,9,4.61,14.53,12,14.53a24.08,24.08,0,0,0,10.84-3L283.82,166a42.66,42.66,0,0,1-11.3,1.62c-13.6,0-22.13-9.69-22.13-25.6,0-21.44,11.76-36.19,28.58-36.19a38.48,38.48,0,0,1,5.77.46l5.3,1.38C291.66,108.36,291.89,108.36,293,108.82Zm-40.81,9a2.92,2.92,0,0,0-1.38-.23c-4.15,0-6.46,2.07-10.38,7.83l1.15-7.37H229.87l-7.61,48.64h12.68c4.62-29.74,5.77-34.81,12-34.81h.92c1.16-5.77,2.54-10.15,4.85-14.07h-.47ZM178.68,166a27.86,27.86,0,0,1-9.22,1.62c-6.46,0-10.14-3.69-10.14-10.61a31.56,31.56,0,0,1,.46-4.38l.69-4.84.69-3.69,5.53-33.2h12.68L178,118.05h6.46l-1.85,12h-6.45l-3.46,20.06c0,.93-.23,1.62-.23,2.08,0,2.54,1.38,3.69,4.38,3.69a12.65,12.65,0,0,0,3.46-.46Zm-49.11-32.51c0,6,3,10.38,9.69,13.37,5.3,2.54,6,3.23,6,5.54,0,3-2.3,4.38-7.38,4.38a34.39,34.39,0,0,1-11.29-2.08L124.73,166h.69l2.31.47a11,11,0,0,0,3.23.46c3,.22,5.53.46,7.14.46,13.38,0,19.6-5.08,19.6-16.14,0-6.69-2.53-10.61-9-13.61-5.3-2.3-6-3-6-5.07q0-4.15,6.22-4.15a73.49,73.49,0,0,1,9.23.92L160,118.05a97.55,97.55,0,0,0-11.29-.93c-14.3,0-19.14,7.38-19.14,16.37Zm261,33.2H378.35l.69-4.84a15.17,15.17,0,0,1-11.76,5.3c-9.22,0-15.45-7.83-15.45-20.05,0-16.14,9.45-29.75,20.75-29.75,5.08,0,8.77,2.08,12.22,6.69L387.57,107h12.68l-9.68,59.72Zm-18.91-11.53c6,0,10.14-6.68,10.14-16.36,0-6-2.3-9.46-6.68-9.46-5.76,0-9.92,6.69-9.92,16.37,0,6.23,2.08,9.45,6.46,9.45Zm-154,10.38a42.13,42.13,0,0,1-13.14,2.07c-14.29,0-21.67-7.61-21.67-21.67,0-16.83,9.46-29,22.37-29,10.37,0,17.06,6.91,17.06,17.75a65.92,65.92,0,0,1-1.38,12H195.52a3.27,3.27,0,0,0-.24,1.38c0,5.54,3.69,8.53,11.3,8.53a31,31,0,0,0,13.15-3Zm-7.14-28.83v-2.53c0-3.92-2.07-6.22-6-6.22s-6.92,3.22-8.07,8.76Zm-129.34,30H68.48l7.37-45.88L59.48,166.69H50.72L49.8,121,42,166.69H30.2L40.12,107H58.33L59,143.87,71.24,107H91.07ZM112.74,145a15.8,15.8,0,0,0-3-.23c-7.15,0-10.84,2.54-10.84,7.38,0,3,1.84,5.07,4.61,5.07,5.3,0,9-5.07,9.22-12.22ZM122,166.69h-10.6l.23-5.07c-3.23,3.92-7.38,5.76-13.37,5.76-6.92,0-11.53-5.3-11.53-13.14,0-11.76,8.07-18.67,22.36-18.67a39.18,39.18,0,0,1,5.08.23,8.05,8.05,0,0,0,.46-3c0-3.22-2.08-4.38-8.07-4.38a37.09,37.09,0,0,0-10.61,1.38l-1.84.46-1.16.23,1.85-10.83c6.45-1.85,10.6-2.54,15.21-2.54,11.07,0,16.83,4.84,16.83,14.06,0,2.54-.23,4.39-1.15,9.69l-2.54,17.29-.46,3-.22,2.53-.23,1.61-.23,1.39ZM313.79,145a15.05,15.05,0,0,0-3-.23c-7.15,0-10.84,2.54-10.84,7.38,0,3,1.85,5.07,4.62,5.07,5.07,0,9-5.07,9.22-12.22ZM323,166.69h-10.6l.23-5.07c-3.23,3.92-7.61,5.76-13.38,5.76-6.91,0-11.75-5.3-11.75-13.14,0-11.76,8.3-18.67,22.59-18.67a39.11,39.11,0,0,1,5.07.23,7.86,7.86,0,0,0,.46-3c0-3.23-2.07-4.38-8.07-4.38A37,37,0,0,0,297,129.8l-1.85.46-1.15.23,1.84-10.83c6.45-1.85,10.61-2.54,15.22-2.54,11.06,0,16.83,4.84,16.83,14.06,0,2.54-.23,4.38-1.15,9.69l-2.54,17.29-.45,3-.46,2.53L323,165.3v1.39Zm34.13-48.87a1.75,1.75,0,0,0-1.16-.23c-4.15,0-6.68,2.07-10.6,7.83l1.15-7.37H335l-7.84,48.64h12.91c4.39-29.74,5.77-34.81,11.76-34.81h.93a50.15,50.15,0,0,1,4.84-14.07h-.46Z"/></g></g></g></g></svg>