<svg xmlns="http://www.w3.org/2000/svg" viewBox="0 0 429 271.69"><defs><style>.cls-1,.cls-3{fill:#1d5b99;}.cls-2{fill:#fff;}.cls-2,.cls-3,.cls-4{fill-rule:evenodd;}.cls-4{fill:#e7a83a;}</style></defs><g id="Слой_2" data-name="Слой 2"><g id="Слой_1-2" data-name="Слой 1"><g id="Слой_2-2" data-name="Слой 2"><g id="Слой_1-2-2" data-name="Слой 1-2"><path class="cls-1" d="M421.71,271.69H0V0H429V271.69Z"/><path class="cls-2" d="M421.71,264.83H7.29V6.86H421.72Z"/><path class="cls-3" d="M157.07,177.74,184,94.25h24l-26.91,83.49ZM146.33,94.27l-21.6,35.4c-5.5,9.27-8.71,14-10.26,19.81h-.33c.38-7.43-.71-16.55-.82-21.7l-2.38-33.51H70.51l-.41,2.25c10.38,0,16.54,4.91,18.24,15l7.88,66.27H121.1l50.3-83.47Zm186.76,83.47-.67-12.42-30,0-6.14,12.44H270.23L317.5,94.41h32l8,83.33Zm-2.76-49.25a180.93,180.93,0,0,1,0-19.61h-.36c-1.46,4.14-7.74,16.59-10.5,22.71l-8.94,18.3h21.06Zm-97.12,51.62A70.27,70.27,0,0,1,197,170.54l11.44-16.43c7.21,3.79,12.88,8.17,25.91,8.17,4.18,0,8.22-1,10.51-4.76,3.34-5.43-.77-8.35-10.15-13.35l-4.63-2.83c-13.9-8.94-19.92-17.43-13.38-32.25,4.2-9.48,15.25-16.67,33.47-16.67a56,56,0,0,1,31.22,10.11L268.21,117c-6.7-5.1-12.25-7.68-18.61-7.68-5.07,0-8.92,1.84-10.25,4.32-2.5,4.66.81,7.84,8.12,12.11l5.5,3.3c16.89,10,20.91,20.52,16.68,30.34-7.28,16.91-21.53,20.68-36.44,20.68Zm131.45-74.54h-1v-6H366c1.53,0,2.3.5,2.3,1.71s-.7,1.53-1.65,1.63l1.78,2.61h-1.18L365.64,103h-1v2.54Zm1.16-3.38c.79,0,1.47-.07,1.47-.94,0-.72-.75-.8-1.37-.8h-1.26v1.74Zm0,5.68a5.38,5.38,0,1,1,5.6-5.38,5.34,5.34,0,0,1-5.6,5.38Zm0-9.83a4.45,4.45,0,1,0,4.38,4.45A4.3,4.3,0,0,0,365.79,98Z"/><path class="cls-4" d="M411.51,203.67H18.22v49.51H411.51Z"/><path class="cls-3" d="M410.78,19.2H17.5V68.7H410.78Zm-9,230.46h-1v-6h2.4c1.53,0,2.31.51,2.31,1.72s-.7,1.52-1.65,1.62l1.78,2.62h-1.18l-1.64-2.55h-1v2.55Zm1.16-3.38c.79,0,1.47-.07,1.47-.94,0-.71-.75-.8-1.37-.8h-1.26v1.74Zm0,5.68a5.34,5.34,0,0,1-5.64-5.38,5.62,5.62,0,1,1,5.64,5.38Zm0-9.83a4.3,4.3,0,0,0-4.41,4.45,4.39,4.39,0,1,0,4.41-4.45Z"/></g></g></g></g></svg>