<svg xmlns="http://www.w3.org/2000/svg" viewBox="0 0 79.73 119"><g id="Слой_2" data-name="Слой 2"><g id="Слой_1-2" data-name="Слой 1"><path d="M39.87,119l-2-3C36.27,113.8,0,61,0,39.87a39.87,39.87,0,1,1,79.73,0C79.73,61,43.46,113.8,41.92,116Zm0-114A34.93,34.93,0,0,0,5,39.87c0,16.91,27.13,58.69,34.89,70.3,7.76-11.61,34.88-53.39,34.88-70.3A34.93,34.93,0,0,0,39.87,5Z"/><path d="M39.64,59.68A17.35,17.35,0,1,1,57,42.33,17.36,17.36,0,0,1,39.64,59.68Zm0-29.73A12.39,12.39,0,1,0,52,42.33,12.4,12.4,0,0,0,39.64,30Z"/></g></g></svg>