<svg xmlns="http://www.w3.org/2000/svg" viewBox="0 0 119.02 119"><g id="Слой_2" data-name="Слой 2"><g id="Слой_1-2" data-name="Слой 1"><path d="M113.58,86.34c-4.93-5.07-19-14.57-28.16-14.57a10,10,0,0,0-5.51,1.46c-4.5,2.87-8.08,5.1-9.8,5.1-1,0-2-.84-4.2-2.77l-.37-.34A119.27,119.27,0,0,1,55.64,66L55,65.31c-.44-.43-.81-.84-1.18-1.21-2.1-2.17-3.62-3.72-9-9.81L44.62,54c-2.57-2.9-4.26-4.8-4.37-6.18s1.09-3.55,4.1-7.64c3.65-4.94,3.78-11,.43-18.09-2.67-5.58-7-10.92-10.88-15.62l-.34-.4C30.25,2,26.39,0,22.1,0c-4.77,0-8.72,2.57-10.82,3.92-.17.1-.34.24-.5.34-4.7,3-8.12,7.07-9.4,11.22-1.93,6.26-3.21,14.37,6,31.24A151.05,151.05,0,0,0,34.1,82.93C44.92,94,49.72,97.6,60.47,105.38,72.44,114,83.93,119,92,119c7.47,0,13.35,0,21.74-10.11C122.51,98.28,118.86,91.79,113.58,86.34Zm-3.89,18.9c-6.76,8.18-10.65,8.18-17.68,8.18-6.86,0-17.51-4.73-28.46-12.61C53.07,93.24,48.4,89.76,37.89,79A145.66,145.66,0,0,1,12.06,44C3.91,29.07,4.83,22.55,6.48,17.17c.88-2.87,3.52-6,7.1-8.18.17-.1.34-.23.54-.34,1.79-1.14,4.77-3.07,8-3.07,2.71,0,5.11,1.35,7.41,4.16l.34.4C38.5,20.69,45.22,30,40.15,36.92,36.57,41.75,34.68,45,35,48.41s2.47,5.75,5.78,9.47l.24.27c5.44,6.15,7,7.77,9.16,10,.37.37.74.78,1.18,1.22L52,70a132.37,132.37,0,0,0,10.25,9.6l.37.34c2.7,2.37,4.7,4.09,7.6,4.09s6.33-1.89,12.61-5.92a5.16,5.16,0,0,1,2.71-.64c7.33,0,20,8.39,24.41,13,4,4.12,6.08,7.23-.21,14.84Z"/></g></g></svg>