<svg xmlns="http://www.w3.org/2000/svg" viewBox="0 0 383.26 384"><defs><style>.cls-1{fill:#fff;}</style></defs><g id="Слой_2" data-name="Слой 2"><g id="Слой_1-2" data-name="Слой 1"><path class="cls-1" d="M178.91,0h25.45c1.09.2,2.18.47,3.28.6,8.9,1.06,17.87,1.65,26.69,3.2,38.81,6.8,74,21.77,103.59,48.3,20.32,18.19,35.18,40,41.88,66.82,1.51,6,2.33,12.22,3.46,18.33v12c-3,6.51-8.13,8.36-15.08,8.35q-176.66-.21-353.31-.1H11.51C4.74,157.3-.15,152.58.09,145.78A136.6,136.6,0,0,1,1.92,126c5.5-29.68,21-53.7,43.08-73.6C76,24.5,113,9.4,153.71,3,162.06,1.67,170.51,1,178.91,0ZM112.44,80.18c-.51-6.15-2.49-9.72-6.79-11.62-4.74-2.11-9.09-1.11-12.71,2.45Q81.85,81.9,71,93c-4.72,4.85-4.72,11.64-.35,16.14s11.27,4.55,16.1-.16c7.41-7.23,14.79-14.51,21.9-22C110.63,84.81,111.6,81.71,112.44,80.18Zm68.58-1c-.59-4.79-3.25-9-7.35-10.72a10.75,10.75,0,0,0-12.41,2.38c-7.58,7.42-15.1,14.91-22.47,22.54a11.07,11.07,0,0,0-.13,15.65l.19.19a10.93,10.93,0,0,0,15.47.23l.06-.06c7.74-7.43,15.34-15,22.72-22.82,1.83-1.94,2.63-4.88,3.92-7.36Zm34,33.41c1.38-.59,4.14-1,5.79-2.58,8.31-7.93,16.51-16,24.35-24.35,4-4.29,3.28-10.94-.81-15s-10.69-4.61-15-.57q-12.34,11.72-24,24.13c-3.14,3.33-3.38,7.67-1.31,11.91s5.45,6,10.93,6.49Zm49.69-13.13c.18,6.26,2.11,9.82,6.36,11.85,4.53,2.17,8.9,1.52,12.45-1.91q11.56-11.18,22.76-22.76A11.09,11.09,0,0,0,306.48,71l-.15-.15c-4.48-4.47-11.27-4.45-16.07.27-7.38,7.26-14.77,14.52-21.88,22C266.44,95.16,265.49,98.12,264.76,99.46Z"/><path class="cls-1" d="M71.12,384c-7.54-2-15.36-3.33-22.58-6.16C20,366.67.26,337.28,0,306.59,0,298.65,4.53,294,12.49,294q179.16,0,358.32-.06c6.21,0,9.87,3.18,12.45,8.3v10.5a19.65,19.65,0,0,0-.68,2.5,78.52,78.52,0,0,1-60.25,66.66c-3.37.79-6.79,1.4-10.18,2.09Z"/><path class="cls-1" d="M383.26,217.5c-2.75,6-7.31,8.7-14,8.4-2.67-.12-5.39.77-8,1.18-.94-7.18-1.88-14.39-3-23-6.17,3-11.38,5.25-16.26,8-3.88,2.22-7.32,5.19-11,7.74a32.71,32.71,0,0,1-38.15-.31c-8-5.77-15.83-11.81-25.65-14.25-16.93-4.22-32.9-2.37-47.47,7.81-2.66,1.85-5.23,3.84-7.87,5.72-13.16,9.38-27.54,9.42-40.56-.08-8-5.82-15.86-11.79-25.78-13.94-16.76-3.64-32.45-1.28-46.71,8.68-2.87,2-5.66,4.11-8.51,6.11-11.94,8.39-26.71,8.13-38.82-.14-6.76-4.61-13.94-8.61-21-12.76-1.35-.79-3-1-5.63-1.79-1,7.56-1.86,14.76-2.76,22-4.14-.41-8.42-.68-12.66-1.28a11.22,11.22,0,0,1,1.19-22.28,51.67,51.67,0,0,1,7.46.4c2.33.24,4.64.7,6.42,1,3.51-7.16,6.91-14.06,10.27-21,1.09-2.26,2.69-3,5.3-3q151.56.12,303.12,0c2.4,0,4,.53,5.08,2.76,3.35,6.93,6.8,13.82,10.44,21.17,8.41-.69,18.8-5.41,24.51,6.87Z"/><path class="cls-1" d="M23.15,227.6c2.64,1.59,5.32,3.08,7.87,4.76,4.89,3.22,9.4,7.19,14.61,9.72,19.6,9.5,38.77,8.5,57.08-3.65,3.12-2.06,6-4.44,9.13-6.54,12.58-8.5,27.48-8.27,39.85.46,4.78,3.37,9.38,7.21,14.58,9.76,19.62,9.57,38.77,8.38,57.07-3.75,2.8-1.86,5.43-4,8.18-5.93,12.42-8.84,27.18-9.07,39.84-.61,5.08,3.4,9.79,7.52,15.21,10.18,19.56,9.62,38.74,8.56,57.09-3.48,3.44-2.25,6.64-4.87,10-7.17,2-1.36,4.24-2.45,7-4a62.93,62.93,0,0,1-3.89,22.93c-2.18,5.93-5.37,11.49-8,17.25-1.21,2.63-3.08,3.29-5.93,3.29q-92.59-.13-185.19-.07c-38.91,0-77.82-.06-116.73.1-3.37,0-5.13-1.13-6.78-3.85a81.09,81.09,0,0,1-11.53-35.63,22.9,22.9,0,0,1,0-2.62C22.56,228.54,22.76,228.34,23.15,227.6Z"/></g></g></svg>